<svg id="Camada_1" data-name="Camada 1" xmlns="http://www.w3.org/2000/svg" viewBox="0 0 225.59 81.64"><defs><style>.cls-1,.cls-2{fill:#fff;}.cls-2{font-size:27px;font-family:Aleo-BoldItalic, Aleo;font-weight:700;font-style:italic;}.cls-3{letter-spacing:-0.05em;}</style></defs><path class="cls-1" d="M59.68,5.62h2v4.45a7,7,0,0,1-4.37,1.43,5.7,5.7,0,0,1-6-5.75A5.71,5.71,0,0,1,57.3,0a5.78,5.78,0,0,1,4.49,1.82L60.48,3.1A4.15,4.15,0,0,0,57.4,1.82a3.83,3.83,0,0,0-4.06,3.93,3.85,3.85,0,0,0,4,3.93,4.47,4.47,0,0,0,2.3-.58Z"/><path class="cls-1" d="M72.76,9.6v1.74H64.38V.16h8.15V1.9H66.45V4.81h5.4v1.7h-5.4V9.6Z"/><path class="cls-1" d="M82.39,11.34,80.1,8.06a3,3,0,0,1-.43,0H77.15v3.26H75.07V.16h4.6c2.94,0,4.76,1.5,4.76,4a3.56,3.56,0,0,1-2.38,3.52l2.57,3.68ZM79.58,1.92H77.15V6.37h2.43c1.82,0,2.76-.83,2.76-2.23S81.4,1.92,79.58,1.92Z"/><path class="cls-1" d="M95.13,9.6v1.74H86.75V.16H94.9V1.9H88.82V4.81h5.4v1.7h-5.4V9.6Z"/><path class="cls-1" d="M107.38.16V11.34h-1.71L99.5,3.77v7.57H97.44V.16h1.71l6.17,7.57V.16Z"/><path class="cls-1" d="M109.58,5.75a5.7,5.7,0,0,1,6-5.75A5.64,5.64,0,0,1,120,1.87l-1.34,1.26a3.92,3.92,0,0,0-3-1.31,3.82,3.82,0,0,0-4,3.93,3.82,3.82,0,0,0,4,3.93,3.9,3.9,0,0,0,3-1.33L120,9.63a6,6,0,0,1-10.41-3.88Z"/><path class="cls-1" d="M122,.16h2.07V11.34H122Z"/><path class="cls-1" d="M135.46,9.6v1.74h-8.38V.16h8.16V1.9h-6.08V4.81h5.39v1.7h-5.39V9.6Z"/><path class="cls-1" d="M141.24,10.15,142,8.54a6.21,6.21,0,0,0,3.69,1.23c1.74,0,2.48-.62,2.48-1.45,0-2.41-6.65-.83-6.65-5C141.48,1.53,142.92,0,146,0a7.07,7.07,0,0,1,3.72,1l-.66,1.61A6.18,6.18,0,0,0,146,1.72c-1.72,0-2.43.68-2.43,1.52,0,2.38,6.63.83,6.63,4.94,0,1.78-1.45,3.32-4.52,3.32A7.21,7.21,0,0,1,141.24,10.15Z"/><path class="cls-1" d="M152.13,6.47V.16h2.08V6.39c0,2.3,1,3.29,2.84,3.29s2.83-1,2.83-3.29V.16h2V6.47c0,3.25-1.83,5-4.88,5S152.13,9.72,152.13,6.47Z"/><path class="cls-1" d="M171.84,8.75h-5.59l-1.1,2.59H163L168,.16h2l5,11.18H173Zm-.69-1.63L169,2.24,167,7.12Z"/><path class="cls-1" d="M23.75,17.18v6.3H8V30H22.16v6H8v6.56H24.24v6.25H.93V17.18Z"/><path class="cls-1" d="M58.87,28.91,50.32,46.2H46.11L37.6,28.91V48.83H30.53V17.18h9.56l8.14,17.39,8.2-17.39h9.5V48.83H58.87Z"/><path class="cls-1" d="M95.51,20q3.33,2.83,3.33,8.69t-3.42,8.58Q92,40,85,40H80.78v8.83H73.72V17.18H84.9Q92.19,17.18,95.51,20ZM90.33,32.46A6.1,6.1,0,0,0,91.6,28.3,4.42,4.42,0,0,0,90,24.4a9.2,9.2,0,0,0-5.14-1.15h-4V33.89h4.75C87.89,33.89,89.48,33.41,90.33,32.46Z"/><path class="cls-1" d="M130,27.69q0,7.6-6,9.82l8,11.32h-8.69l-7-10.1h-4.89v10.1h-7.06V17.18h12c4.92,0,8.42.84,10.52,2.49S130,24,130,27.69Zm-8.51,3.75a4.79,4.79,0,0,0,1.31-3.73c0-1.71-.45-2.88-1.36-3.51s-2.49-.95-4.75-.95h-5.3v9.37h5.16C119,32.62,120.64,32.23,121.52,31.44Z"/><path class="cls-1" d="M160.08,17.18v6.3H144.33V30H158.5v6H144.33v6.56h16.25v6.25H137.27V17.18Z"/><path class="cls-1" d="M174.27,23.5a2.75,2.75,0,0,0-1,2.22,2.49,2.49,0,0,0,1.24,2.19,22.49,22.49,0,0,0,5.75,1.93,16.28,16.28,0,0,1,7,3.32q2.49,2.22,2.49,6.48a8.55,8.55,0,0,1-3.19,6.9,12.71,12.71,0,0,1-8.4,2.65,19.43,19.43,0,0,1-13.53-5.57l4.21-5.16q5.12,4.49,9.46,4.48a5,5,0,0,0,3.06-.84,2.69,2.69,0,0,0,1.1-2.26,2.64,2.64,0,0,0-1.17-2.26,15.28,15.28,0,0,0-4.66-1.7c-3.69-.88-6.38-2-8.08-3.42S166,28.86,166,25.85a8.2,8.2,0,0,1,3.24-7,13.07,13.07,0,0,1,8.08-2.44,19.25,19.25,0,0,1,6.33,1.09,16.94,16.94,0,0,1,5.52,3.07l-3.57,5.17a13.92,13.92,0,0,0-8.51-3.13A4.26,4.26,0,0,0,174.27,23.5Z"/><path class="cls-1" d="M217.93,48.83,215,42H201.73l-2.94,6.84h-7.52l13.67-31.65h6.84l13.67,31.65ZM208.38,26.6l-4,9.19h7.92Z"/><text class="cls-2" transform="translate(0.02 75.72) rotate(0.27)">de <tspan class="cls-3" x="34.43" y="0">f</tspan><tspan x="45.38" y="0">orma eficiente!</tspan></text></svg>