<svg id="Camada_1" data-name="Camada 1" xmlns="http://www.w3.org/2000/svg" viewBox="0 0 23.74 24.18"><defs><style>.cls-1{fill:#0b3a57;}.cls-2{fill:#1b93ba;}.cls-3{fill:#3eb2d2;}.cls-4{fill:#007998;}.cls-5{fill:#08a0ca;}</style></defs><polygon class="cls-1" points="23.74 15.97 18.4 15.97 18.4 5.33 8.12 5.33 8.12 0 23.74 0 23.74 15.97"/><polygon class="cls-2" points="19.67 20.09 14.32 20.09 14.33 9.47 4.08 9.47 4.08 8.65 4.08 4.13 19.67 4.13 19.67 20.09"/><polygon class="cls-3" points="15.59 24.18 0 24.18 0.01 13.56 0.01 12.74 0.01 8.22 15.59 8.22 15.59 24.18"/><polygon class="cls-4" points="19.68 4.04 8.12 4.13 8.12 8.22 15.59 8.22 15.59 15.97 19.68 15.97 19.68 4.04"/><polygon class="cls-5" points="15.59 8.22 5.93 8.22 4.08 8.22 4.08 20.09 4.18 20.09 5.93 20.09 15.59 20.09 15.59 18.25 15.59 8.22"/></svg>