<svg id="Layer_1" data-name="Layer 1" xmlns="http://www.w3.org/2000/svg" viewBox="0 0 30 30"><defs><style>.cls-1{fill:#17b7e2;}</style></defs><path class="cls-1" d="M21.24,7.43a1.38,1.38,0,1,0,1.38,1.38A1.38,1.38,0,0,0,21.24,7.43Z"/><path class="cls-1" d="M15.1,9.2A5.8,5.8,0,1,0,20.9,15,5.81,5.81,0,0,0,15.1,9.2Zm0,9.52A3.72,3.72,0,1,1,18.81,15,3.73,3.73,0,0,1,15.1,18.72Z"/><path class="cls-1" d="M19.7,26.78H10.3A7.08,7.08,0,0,1,3.22,19.7V10.3A7.08,7.08,0,0,1,10.3,3.22h9.4a7.08,7.08,0,0,1,7.08,7.08v9.4A7.08,7.08,0,0,1,19.7,26.78ZM10.3,5.44A4.87,4.87,0,0,0,5.44,10.3v9.4a4.87,4.87,0,0,0,4.86,4.86h9.4a4.87,4.87,0,0,0,4.86-4.86V10.3A4.87,4.87,0,0,0,19.7,5.44Z"/></svg>