<svg id="Layer_1" data-name="Layer 1" xmlns="http://www.w3.org/2000/svg" viewBox="0 0 116 116"><defs><style>.cls-1{fill:#17b7e2;}.cls-2,.cls-3{fill:none;stroke:#17b7e2;stroke-miterlimit:10;}.cls-2{stroke-width:4px;fill-rule:evenodd;}.cls-3{stroke-width:3px;}</style></defs><path class="cls-1" d="M61.81,45.56a7.91,7.91,0,0,1-2.87-.51,6.53,6.53,0,0,1-2.29-1.47,6.73,6.73,0,0,1-1.5-2.25,7.44,7.44,0,0,1-.55-2.89v0a7.58,7.58,0,0,1,.51-2.78,6.92,6.92,0,0,1,1.4-2.29,6.49,6.49,0,0,1,4.91-2.11,6.76,6.76,0,0,1,3,.61,6.27,6.27,0,0,1,2.1,1.66,7.18,7.18,0,0,1,1.23,2.4,9.74,9.74,0,0,1,.4,2.81c0,.16,0,.32,0,.49s0,.35,0,.54h-9.6a3.3,3.3,0,0,0,1.17,2,3.48,3.48,0,0,0,2.2.68,4.4,4.4,0,0,0,1.75-.33A5.78,5.78,0,0,0,65.21,41l2.23,2a6.86,6.86,0,0,1-2.36,1.89A7.29,7.29,0,0,1,61.81,45.56Zm2.52-8.28a3.77,3.77,0,0,0-.93-2.12,2.54,2.54,0,0,0-2-.81,2.61,2.61,0,0,0-2,.79,4,4,0,0,0-1,2.14Z"/><path class="cls-1" d="M11.26,11.39h3.91l9,11.88V11.39h4.2V30.7H24.8L15.45,18.42V30.7H11.26Z"/><path class="cls-1" d="M33.05,11.39h14.7v3.83H37.3v4.17h9.21v3.83H37.3V30.7H33.05Z"/><path class="cls-2" d="M46.89,36.21c-13,18.68-17.67,38-10.32,43.12S60.46,73.48,73.51,54.8s17.68-38,10.33-43.12S60,17.52,46.89,36.21Z"/><path class="cls-2" d="M49,48.35C40.14,64.09,37.75,78.68,44,83c7.34,5.14,23.88-5.85,36.94-24.53s17.67-38,10.32-43.12C86.19,11.85,76.74,16,67.08,25"/><path class="cls-3" d="M59.35,88.69l1,1.43A1.36,1.36,0,0,1,60.21,92l-6.76,6.18a1.36,1.36,0,0,0-.14,1.92,1.31,1.31,0,0,0,.24.23l8.1,6a1.36,1.36,0,0,0,1.85-.21l9.08-10.58a1.38,1.38,0,0,0,.33-.93l-.15-4.81a1.38,1.38,0,0,1,.35-.95l3.6-3.93a1.18,1.18,0,0,1,.47-.33l7.66-3.29h.09L91.4,79a1.35,1.35,0,0,0,.86-.92l6.37-22.75a1.46,1.46,0,0,1,.28-.52l9.93-11.45a1.37,1.37,0,0,0,.34-1.1L108,34.78a1.36,1.36,0,0,0-1.35-1.16h-2.33a27.21,27.21,0,0,1-3.12-2.09l-.52,2.19L102.17,35a3.52,3.52,0,0,0,2.14.75H106l1,6.51L97.33,53.41a3.52,3.52,0,0,0-.73,1.34L90.33,77.12l-6.18,2.14-.17.07-7.66,3.28a3.44,3.44,0,0,0-1.21.86l-3.59,3.92a3.52,3.52,0,0,0-.92,2.49l.15,4.49-8.41,9.76-6.76-5,6.07-5.55A3.53,3.53,0,0,0,62,88.75l-.84-1.1Zm11-66.4,2.1-1.36M31.06,49c-.53-1.92-1.62-2.36-3.52-2-.13,0-.25.06-.37.09l-9.45,2.8a3.5,3.5,0,0,0-4.36-2.34,3.59,3.59,0,0,0-.51.2l-.54.25L8,43l5.38-5-2.7,0-4.6,3.85a1.37,1.37,0,0,0-.23,1.91l0,0,5.19,6.1a1.37,1.37,0,0,0,1.63.36l1.07-.52a1.36,1.36,0,0,1,1.81.64,1.21,1.21,0,0,1,.13.59,1.38,1.38,0,0,0,1.35,1.38,1.55,1.55,0,0,0,.43-.07l10.3-3a1.36,1.36,0,0,1,1.69.92s.75,1.22.75,1.22Z"/></svg>