<svg id="Layer_1" data-name="Layer 1" xmlns="http://www.w3.org/2000/svg" viewBox="0 0 100 100"><defs><style>.cls-1,.cls-2{fill:#002387;}.cls-2{fill-rule:evenodd;}</style></defs><path class="cls-1" d="M69,71.39v12.1A2.51,2.51,0,0,1,66.49,86h-44A2.51,2.51,0,0,1,20,83.49V20a3.77,3.77,0,0,1,3.79-3.77L34,16.33V18H54V16.33l15-.08V54.74l6-3V11H54V8H34v3H18.33a3.76,3.76,0,0,0-3.77,3.76L14.5,89.49A2.52,2.52,0,0,0,17,92H72.49A2.51,2.51,0,0,0,75,89.49V67L69,70.7Zm-19-59a1.12,1.12,0,1,1-1.11,1.11A1.12,1.12,0,0,1,50,12.38Zm-12,0a1.12,1.12,0,1,1-1.12,1.11A1.12,1.12,0,0,1,38,12.38Z"/><rect class="cls-1" x="29.99" y="26.92" width="29.01" height="2.07"/><rect class="cls-1" x="29.99" y="31.8" width="24.87" height="2.07"/><path class="cls-2" d="M38,82.5c.1-.22.16-.38.24-.54.7-1.34,1.38-2.69,2.1-4a1.72,1.72,0,0,1,.6-.68L78.67,53.43l.4-.23c1,1.57,2,3.13,3,4.74l-.47.32Q62.87,70.1,44.11,81.92a2.64,2.64,0,0,1-1.17.37c-1.44.1-2.88.15-4.32.21C38.45,82.51,38.27,82.5,38,82.5Z"/><path class="cls-2" d="M59,41v2H30V41Z"/><path class="cls-2" d="M59,37v2H30V37Z"/><path class="cls-2" d="M30,47V45H49v2Z"/><path class="cls-2" d="M30,70V68H43v2Z"/><path class="cls-2" d="M59,54v2H30V54Z"/><path class="cls-2" d="M59,50v2H30V50Z"/><path class="cls-2" d="M59,58v2H30V58Z"/><path class="cls-2" d="M30,66V64H49v2Z"/><path class="cls-2" d="M85,56.15l-2.06,1.3c-1-1.59-2-3.15-3-4.77L82,51.38C83,53,84,54.51,85,56.15Z"/></svg>