<svg id="Layer_1" data-name="Layer 1" xmlns="http://www.w3.org/2000/svg" viewBox="0 0 100 100"><defs><style>.cls-1{fill:#002387;}</style></defs><rect class="cls-1" x="31.29" y="71.79" width="7.67" height="8.76"/><rect class="cls-1" x="18.14" y="82.75" width="20.82" height="2.19"/><path class="cls-1" d="M39,64.12H9.68c-1.1,0-1.4-.26-1.4-1.36V25.69c0-1.09.3-1,1.4-1H39V19.2H5.74c-1.62,0-2.94.93-2.94,2.55v45a2.91,2.91,0,0,0,2.94,2.9H39Z"/><path class="cls-1" d="M10.47,32.5V61.93H39V52.05s-9.3,5.19-15.5-3.08c-1.85-2.47-.81-7.23-4.64-11.58C16.09,34.27,10.47,32.5,10.47,32.5Z"/><path class="cls-1" d="M60.14,38.36h-13v-13h13ZM49.49,36h8.29V27.71H49.49Z"/><rect class="cls-1" x="63.69" y="27.71" width="24.84" height="2.37"/><rect class="cls-1" x="63.69" y="32.44" width="21.3" height="2.37"/><path class="cls-1" d="M60.14,58.47h-13v-13h13ZM49.49,56.1h8.29V47.82H49.49Z"/><rect class="cls-1" x="63.69" y="50.19" width="18.93" height="2.37"/><rect class="cls-1" x="63.69" y="54.92" width="22.48" height="2.37"/><path class="cls-1" d="M60.14,78.58h-13v-13h13ZM49.49,76.22h8.29V67.93H49.49Z"/><rect class="cls-1" x="63.69" y="67.93" width="20.11" height="2.37"/><rect class="cls-1" x="63.69" y="45.46" width="23.66" height="2.37"/><rect class="cls-1" x="63.69" y="72.67" width="13.01" height="2.37"/><path class="cls-1" d="M78.08,10.54V8H57.43v2.49l-19.72,0-.05,78.58a2.52,2.52,0,0,0,2.52,2.52H95.49A2.51,2.51,0,0,0,98,89.08L98,10.5Zm-4.38,1.6a1.12,1.12,0,1,1-1.12,1.12A1.12,1.12,0,0,1,73.7,12.14Zm-12,0a1.12,1.12,0,1,1-1.12,1.12A1.12,1.12,0,0,1,61.68,12.14ZM90,86.08H45.69a2.52,2.52,0,0,1-2.51-2.51V16l14.25.08v2.21H78.08V16.1L92.48,16V83.57A2.51,2.51,0,0,1,90,86.08Z"/></svg>