<svg id="Layer_1" data-name="Layer 1" xmlns="http://www.w3.org/2000/svg" viewBox="0 0 116 116"><defs><style>.cls-1,.cls-2{fill:#087e9b;}.cls-2{fill-rule:evenodd;}</style></defs><path class="cls-1" d="M81,83.46V101H23V17.84l17,.1V20H64V17.94l17-.1V63.66l6.85-4.2L87.73,11H64V8H40v3H16.1L16,108H88.19L88,79.26v-.51l-7,3.9ZM58.82,13.23a1.33,1.33,0,1,1-1.33,1.33A1.32,1.32,0,0,1,58.82,13.23Zm-14.29,0a1.33,1.33,0,1,1-1.33,1.33A1.33,1.33,0,0,1,44.53,13.23Z"/><rect class="cls-1" x="34.63" y="30.54" width="34.53" height="2.46"/><rect class="cls-1" x="34.63" y="36.34" width="29.6" height="2.46"/><path class="cls-2" d="M44.58,96.69c.12-.26.19-.45.29-.64.83-1.6,1.64-3.2,2.5-4.79a2.16,2.16,0,0,1,.72-.81Q70.52,76.26,93,62.09l.48-.27L97,67.46c-.2.14-.38.27-.56.38Q74.16,81.94,51.84,96a3.18,3.18,0,0,1-1.41.43c-1.7.13-3.42.18-5.13.26C45.09,96.71,44.88,96.69,44.58,96.69Z"/><path class="cls-2" d="M69,48v2H35V48Z"/><path class="cls-2" d="M69,42v3H35V42Z"/><path class="cls-2" d="M35,55V52H58v3Z"/><path class="cls-2" d="M35,61V58H69v3Z"/><path class="cls-2" d="M69,68v3H35V68Z"/><path class="cls-2" d="M69,64v2H35V64Z"/><path class="cls-2" d="M35,77V74H58v3Z"/><path class="cls-2" d="M35,82V79H51v3Z"/><path class="cls-2" d="M100.5,65.33l-2.45,1.54c-1.2-1.88-2.37-3.74-3.59-5.67l2.44-1.55Z"/></svg>