<svg id="Layer_1" data-name="Layer 1" xmlns="http://www.w3.org/2000/svg" viewBox="0 0 100 100"><defs><style>.cls-1{fill:#002387;}</style></defs><path class="cls-1" d="M53.7,39.19a6.48,6.48,0,0,1-2.4-.43,5.48,5.48,0,0,1-1.92-1.22,5.69,5.69,0,0,1-1.26-1.89,6.25,6.25,0,0,1-.45-2.42v0a6.46,6.46,0,0,1,.42-2.33A5.88,5.88,0,0,1,49.26,29a5.47,5.47,0,0,1,1.8-1.3,5.64,5.64,0,0,1,2.31-.47,5.55,5.55,0,0,1,2.5.52,5.1,5.1,0,0,1,1.76,1.38,5.89,5.89,0,0,1,1,2A8.34,8.34,0,0,1,59,33.44c0,.13,0,.27,0,.41s0,.3,0,.46h-8a2.76,2.76,0,0,0,1,1.69,2.93,2.93,0,0,0,1.84.57,3.73,3.73,0,0,0,1.46-.28,5.05,5.05,0,0,0,1.34-.91L58.41,37a5.75,5.75,0,0,1-2,1.58A6.13,6.13,0,0,1,53.7,39.19Zm2.11-6.93A3.2,3.2,0,0,0,55,30.48a2.16,2.16,0,0,0-1.66-.67,2.18,2.18,0,0,0-1.66.66,3.32,3.32,0,0,0-.83,1.79Z"/><path class="cls-1" d="M11.4,10.59h3.27l7.58,10V10.59h3.5V26.75h-3L14.91,16.48V26.75H11.4Z"/><path class="cls-1" d="M29.63,10.59H41.94V13.8H33.19v3.49H40.9V20.5H33.19v6.25H29.63Z"/><path class="cls-1" d="M36.12,70.13a7.7,7.7,0,0,1-4.51-1.31c-7-4.9-3.4-21.78,8.22-38.41h0C51.46,13.76,66.07,4.57,73.08,9.47s3.4,21.77-8.23,38.41C55.34,61.5,43.83,70.13,36.12,70.13Zm6.46-37.81c-11.09,15.87-13.67,30.53-9,33.76S51,61.84,62.11,46s13.67-30.53,9-33.76-17.5,4.24-28.58,20.11Z"/><path class="cls-1" d="M42.33,73.24a7.7,7.7,0,0,1-4.51-1.31c-6-4.17-4.47-16.71,3.69-31.22l2.92,1.64c-6.94,12.32-9,23.86-4.69,26.83,4.62,3.23,17.49-4.24,28.58-20.11S82,18.54,77.37,15.32c-3.31-2.32-10.6.86-18.13,7.9L57,20.78c9.11-8.54,17.46-11.6,22.33-8.21,7,4.9,3.4,21.78-8.23,38.42C61.55,64.61,50,73.24,42.33,73.24Z"/><path class="cls-1" d="M54.24,92a2.88,2.88,0,0,1-1.73-.58l-6.76-5a3,3,0,0,1-.49-.46,2.89,2.89,0,0,1,.29-4.07l5.23-4.78-1.67-2.4,4.52-2.58,1.63,2.14a4.71,4.71,0,0,1-.51,6.35l-3.52,3.22,2.65,2,5.52-6.41-.1-3.08A4.68,4.68,0,0,1,60.53,73l3-3.28a4.75,4.75,0,0,1,1.62-1.15l6.66-2.85,4.3-1.49,5-17.83a4.92,4.92,0,0,1,1-1.8l7.56-8.73-.49-3.17a4.74,4.74,0,0,1-2.77-1l-2.1-1.81,1.29-5.46L87.72,26c.69.52,1.54,1.13,2,1.41h1.54a2.91,2.91,0,0,1,2.85,2.46l1,6.26a2.86,2.86,0,0,1-.72,2.37L86.16,48l-5.29,18.9a2.9,2.9,0,0,1-1.85,2l-5.7,2-5.95,2.56-2.75,3,.11,3.77a2.81,2.81,0,0,1-.7,2L56.44,91A2.91,2.91,0,0,1,54.24,92ZM64.45,76.54Zm.16-.44Zm2.64-2.7Zm.21-.15ZM27.78,48.06l-2-3.09c-.28-.43-.45-.71-.57-.9l-8.12,2.4a3,3,0,0,1-.87.12,2.89,2.89,0,0,1-2.72-2l-.16.07a2.89,2.89,0,0,1-3.46-.75l-4.4-5.18A2.89,2.89,0,0,1,6,34.69l4.31-3.6,7.28.07-6.48,6.05,1.68,2a4.7,4.7,0,0,1,4.87,1.6l6.55-1.94a3.37,3.37,0,0,1,.48-.12c3.26-.63,4.5,1.24,5,2.92l.15.52Z"/></svg>