<svg id="Layer_1" data-name="Layer 1" xmlns="http://www.w3.org/2000/svg" viewBox="0 0 116 116"><defs><style>.cls-1{fill:#212f56;}</style></defs><rect class="cls-1" x="35.32" y="84.1" width="9.1" height="10.4"/><rect class="cls-1" x="19.73" y="97.1" width="24.7" height="2.6"/><path class="cls-1" d="M44.42,75H9.68C8.38,75,8,74.69,8,73.39v-44c0-1.31.35-1.2,1.65-1.2H44.42v-6.5H5c-1.93,0-3.48,1.1-3.48,3V78.06A3.44,3.44,0,0,0,5,81.5H44.42Z"/><path class="cls-1" d="M10.63,37.48V72.4H44.42V60.67S33.39,66.83,26,57c-2.2-2.93-1-8.58-5.5-13.75C17.29,39.58,10.63,37.48,10.63,37.48Z"/><path class="cls-1" d="M69.56,44.43H54.12V29H69.56ZM56.92,41.62h9.83V31.8H56.92Z"/><rect class="cls-1" x="73.77" y="31.8" width="29.48" height="2.81"/><rect class="cls-1" x="73.77" y="37.41" width="25.27" height="2.81"/><path class="cls-1" d="M69.56,68.29H54.12V52.85H69.56Zm-12.64-2.8h9.83V55.66H56.92Z"/><rect class="cls-1" x="73.77" y="58.47" width="22.46" height="2.81"/><rect class="cls-1" x="73.77" y="64.08" width="26.67" height="2.81"/><path class="cls-1" d="M69.56,92.16H54.12V76.72H69.56ZM56.92,89.35h9.83V79.52H56.92Z"/><rect class="cls-1" x="73.77" y="79.52" width="23.86" height="2.81"/><rect class="cls-1" x="73.77" y="52.85" width="28.07" height="2.81"/><rect class="cls-1" x="73.77" y="85.14" width="15.44" height="2.81"/><path class="cls-1" d="M90.84,11.43v-3H66.34v3l-23.4,0,0,96.22h71.58l0-96.22Zm-5.2,1.89a1.33,1.33,0,1,1-1.33,1.33A1.34,1.34,0,0,1,85.64,13.32Zm-14.26,0a1.33,1.33,0,1,1-1.33,1.33A1.33,1.33,0,0,1,71.38,13.32Zm36.54,87.73H49.43V17.93l16.91.1v2.62h24.5V18l17.08-.1Z"/></svg>