<svg id="Layer_1" data-name="Layer 1" xmlns="http://www.w3.org/2000/svg" viewBox="0 0 30 30"><defs><style>.cls-1,.cls-2{fill:#17b7e2;}.cls-2{fill-rule:evenodd;}</style></defs><path class="cls-1" d="M3.53,26.5l1.65-6.15a11.39,11.39,0,1,1,4.53,4.49Zm6.49-4,.39.23a9.24,9.24,0,1,0-3.16-3.13l.24.39-.92,3.43Z"/><path class="cls-2" d="M19.34,16.44a1.94,1.94,0,0,0-1.63-.37c-.42.18-.69.84-1,1.18a.4.4,0,0,1-.52.11,7.37,7.37,0,0,1-3.68-3.15.46.46,0,0,1,.06-.62,2.4,2.4,0,0,0,.67-1.08,2.45,2.45,0,0,0-.3-1.29A3,3,0,0,0,12,9.8a1.29,1.29,0,0,0-1.41.21,2.87,2.87,0,0,0-1,2.26,2.84,2.84,0,0,0,.09.72,6.3,6.3,0,0,0,.69,1.6,12.82,12.82,0,0,0,.72,1.09,11,11,0,0,0,3.13,2.9,8.73,8.73,0,0,0,1.95.93,4.31,4.31,0,0,0,2.27.36,2.73,2.73,0,0,0,2.05-1.53,1.32,1.32,0,0,0,.1-.78C20.5,17,19.77,16.7,19.34,16.44Z"/></svg>