<svg id="Camada_1" data-name="Camada 1" xmlns="http://www.w3.org/2000/svg" viewBox="0 0 601.21 217.39"><defs><style>.cls-1{fill:#fff;}</style></defs><path class="cls-1" d="M75.35,29.75V46.31H91.6V35.85a3.51,3.51,0,0,1,3.51-3.51h80.63v67.91a3.5,3.5,0,0,1-3.5,3.5H164.9V120h13.43A13.67,13.67,0,0,0,192,106.35V16.08H89A13.67,13.67,0,0,0,75.35,29.75Z"/><path class="cls-1" d="M37.78,70.37V86.94H54V76.46A3.51,3.51,0,0,1,57.55,73h80.63v67.91a3.51,3.51,0,0,1-3.51,3.51h-7.34v16.25h13.44A13.66,13.66,0,0,0,154.44,147V56.7h-103A13.67,13.67,0,0,0,37.78,70.37Z"/><path class="cls-1" d="M19.92,97.37A20,20,0,0,0,0,117.3v64.08A19.94,19.94,0,0,0,19.92,201.3H96.73a19.93,19.93,0,0,0,19.92-19.92v-84Zm80.48,16.26v67.75a3.67,3.67,0,0,1-3.67,3.67H19.92a3.66,3.66,0,0,1-3.66-3.67V117.3a3.66,3.66,0,0,1,3.66-3.67Z"/><path class="cls-1" d="M82.05,121.59h9.26a0,0,0,0,1,0,0v9.26a1.1,1.1,0,0,1-1.1,1.1H82.05a1.1,1.1,0,0,1-1.1-1.1v-8.16A1.1,1.1,0,0,1,82.05,121.59Z"/><path class="cls-1" d="M292.76,33.4H263.15A8.38,8.38,0,0,1,254.78,25V18.56a8.38,8.38,0,0,1,8.37-8.38H356.3V25a8.38,8.38,0,0,1-8.38,8.38h-29.6v93.86a8.38,8.38,0,0,1-8.38,8.38h-8.81a8.38,8.38,0,0,1-8.37-8.38Z"/><path class="cls-1" d="M485,68.33v62.21a5.1,5.1,0,0,1-5.1,5.1H467.3a5.08,5.08,0,0,1-5.09-5.08l0-7.52c-7.74,10.62-20.7,15.66-36.54,15.66-36.72,0-62.1-26.82-62.1-65.34,0-38.16,24.84-66.42,62.1-66.42,25.38,0,47,13,56.52,37.44,0,0-13.43.58-27.74.69-6.47-9.31-16.8-14-29.14-14C403,31.06,388.93,46,388.93,72.82c0,27.9,15.3,41.58,38.52,41.58,19.44,0,30.06-9.54,30.06-22.86v-1.8H436.23A6.26,6.26,0,0,1,430,83.48V74.59a6.26,6.26,0,0,1,6.26-6.26Z"/><path class="cls-1" d="M508.42,97.41l8.76-2.19a8.33,8.33,0,0,1,9.85,5.42c3.5,9.88,11.87,15,22.87,15s18.72-5.4,18.72-15.48c0-7.2-6.12-12.06-23.58-19.08C518.58,70.48,509,60.76,509,42c0-20.52,16-34.92,40-34.92,16.81,0,30.21,7.49,38.22,22.31a1.55,1.55,0,0,1-.55,2l-12,7.5a9.12,9.12,0,0,1-11.92-2.09,18.29,18.29,0,0,0-14.44-7.25c-7.74,0-13.86,5-13.86,11.88,0,7.2,5.4,11.7,23.94,18.9C585.18,70.84,594,80,594,97.84c0,24.12-18.9,40.32-44.46,40.32-22.09,0-40-11.43-46.91-29.64A8.38,8.38,0,0,1,508.42,97.41Z"/><path class="cls-1" d="M274.07,198.18c0-2.55-1.68-3.82-4.92-4.86l-5.49-1.73c-4.92-1.57-9.43-5-9.43-11.63s5.49-11.51,13.88-11.51c6.19,0,10.36,3,11.8,4.91a4.09,4.09,0,0,1,.81,2.32,3.68,3.68,0,0,1-6.24,2.66,9.8,9.8,0,0,0-6.37-2.49c-3.41,0-5.61,1.62-5.61,4.11,0,2,1.39,3.35,3.36,4l6.36,2c4.63,1.45,10.06,4.34,10.06,12.21,0,5.9-5,12.26-14.86,12.26a17.22,17.22,0,0,1-14.17-6.88,3.23,3.23,0,0,1-.58-1.91,3.74,3.74,0,0,1,3.76-3.7,3.4,3.4,0,0,1,2.6,1.16,12.73,12.73,0,0,0,8.39,3.93C271.7,203,274.07,201.13,274.07,198.18Z"/><path class="cls-1" d="M290.39,194.88V184c0-9.2,6.88-15.56,15.67-15.56,9.37,0,15.68,6.36,15.68,15.56v10.87c0,9.2-6.31,15.56-15.68,15.56C297.27,210.44,290.39,204.08,290.39,194.88ZM306.06,203a7.64,7.64,0,0,0,7.93-8V183.83a7.93,7.93,0,1,0-15.85,0v11.23A7.63,7.63,0,0,0,306.06,203Z"/><path class="cls-1" d="M331,206.05v-33a3.88,3.88,0,0,1,3.93-3.88h17.41a3.7,3.7,0,0,1,0,7.4H338.75v9.2h11a3.69,3.69,0,0,1,3.71,3.7,3.73,3.73,0,0,1-3.71,3.71h-11v12.84a3.88,3.88,0,0,1-7.75,0Z"/><path class="cls-1" d="M375.83,206.05V176.6h-8.27a3.7,3.7,0,1,1,0-7.4h24.35a3.7,3.7,0,0,1,0,7.4h-8.33v29.45a3.88,3.88,0,0,1-7.75,0Z"/><path class="cls-1" d="M411.81,207.09l-9-32.74a5.39,5.39,0,0,1-.23-1.51,3.83,3.83,0,0,1,3.87-3.87,3.45,3.45,0,0,1,3.65,2.77l5.55,23.2,7.52-23.25a3.8,3.8,0,0,1,7.29,0L438,194.94l5.55-23.2a3.45,3.45,0,0,1,3.65-2.77,3.84,3.84,0,0,1,3.87,3.87,5.39,5.39,0,0,1-.23,1.51l-9,32.74a3.76,3.76,0,0,1-3.76,2.83,3.72,3.72,0,0,1-3.71-2.72l-7.52-24-7.52,24a3.7,3.7,0,0,1-3.7,2.72A3.75,3.75,0,0,1,411.81,207.09Z"/><path class="cls-1" d="M453.64,205.93a5.41,5.41,0,0,1,.34-1.56l12.56-32.16a4.68,4.68,0,0,1,8.91,0L488,204.37a5.41,5.41,0,0,1,.34,1.56,3.86,3.86,0,0,1-3.87,4,3.78,3.78,0,0,1-3.82-2.6l-2.43-6.65H463.76l-2.43,6.65a3.79,3.79,0,0,1-3.82,2.6A3.86,3.86,0,0,1,453.64,205.93Zm22-12.55L471,180.71l-4.63,12.67Z"/><path class="cls-1" d="M495,206.05v-33a3.88,3.88,0,0,1,3.93-3.88h12.44a12.74,12.74,0,0,1,12.84,12.73,12.45,12.45,0,0,1-6.65,11.28L524.15,204a4.28,4.28,0,0,1,.7,2.2,3.77,3.77,0,0,1-3.71,3.7,3.4,3.4,0,0,1-3.12-1.73l-8.39-13.54h-6.88v11.4a3.88,3.88,0,0,1-7.75,0Zm15.5-18.57a5.56,5.56,0,1,0,0-11.11h-7.75v11.11Z"/><path class="cls-1" d="M533.24,205.82V173.08a3.88,3.88,0,0,1,3.93-3.88h17.41a3.7,3.7,0,0,1,0,7.4H541v8.74h11a3.7,3.7,0,1,1,0,7.4H541v9.55h13.59a3.69,3.69,0,0,1,3.7,3.7,3.72,3.72,0,0,1-3.7,3.7H537.17A3.88,3.88,0,0,1,533.24,205.82Z"/><path class="cls-1" d="M587.79,198.18c0-2.55-1.68-3.82-4.92-4.86l-5.49-1.73c-4.92-1.57-9.43-5-9.43-11.63s5.49-11.51,13.88-11.51c6.19,0,10.35,3,11.8,4.91a4.16,4.16,0,0,1,.81,2.32,3.68,3.68,0,0,1-6.25,2.66,9.78,9.78,0,0,0-6.36-2.49c-3.41,0-5.61,1.62-5.61,4.11,0,2,1.39,3.35,3.35,4l6.37,2c4.62,1.45,10.06,4.34,10.06,12.21,0,5.9-5,12.26-14.87,12.26A17.24,17.24,0,0,1,567,203.56a3.23,3.23,0,0,1-.58-1.91,3.74,3.74,0,0,1,3.76-3.7,3.45,3.45,0,0,1,2.61,1.16,12.71,12.71,0,0,0,8.38,3.93C585.42,203,587.79,201.13,587.79,198.18Z"/></svg>