<svg id="Camada_1" data-name="Camada 1" xmlns="http://www.w3.org/2000/svg" viewBox="0 0 594 206.2"><defs><style>.cls-1,.cls-2{fill:#fff;}.cls-2{stroke:#0943e3;stroke-miterlimit:10;}</style></defs><path class="cls-1" d="M292.76,26.46H263.15a8.38,8.38,0,0,1-8.37-8.38V11.61a8.37,8.37,0,0,1,8.37-8.37H356.3V18.08a8.38,8.38,0,0,1-8.38,8.38h-29.6v93.86a8.38,8.38,0,0,1-8.38,8.38h-8.81a8.38,8.38,0,0,1-8.37-8.38Z"/><path class="cls-1" d="M485,61.39V123.6a5.1,5.1,0,0,1-5.1,5.1H467.3a5.09,5.09,0,0,1-5.09-5.09l0-7.51c-7.74,10.62-20.7,15.66-36.54,15.66-36.72,0-62.1-26.82-62.1-65.34C363.55,28.26,388.39,0,425.65,0c25.38,0,47,13,56.52,37.44,0,0-13.43.58-27.74.69-6.47-9.31-16.8-14-29.14-14-22.32,0-36.36,14.94-36.36,41.76,0,27.9,15.3,41.58,38.52,41.58,19.44,0,30.06-9.54,30.06-22.86V82.8H436.23A6.26,6.26,0,0,1,430,76.54V67.65a6.26,6.26,0,0,1,6.26-6.26Z"/><path class="cls-1" d="M508.42,90.47l8.76-2.19A8.33,8.33,0,0,1,527,93.69c3.5,9.89,11.87,15,22.87,15s18.72-5.4,18.72-15.48c0-7.2-6.12-12.06-23.58-19.08-26.46-10.62-36-20.34-36-39.06,0-20.52,16-34.92,40-34.92,16.81,0,30.21,7.49,38.22,22.31a1.55,1.55,0,0,1-.55,2l-12,7.5a9.12,9.12,0,0,1-11.92-2.09,18.29,18.29,0,0,0-14.44-7.25c-7.74,0-13.86,5-13.86,11.88,0,7.2,5.4,11.7,23.94,18.9C585.18,63.9,594,73.08,594,90.9c0,24.12-18.9,40.32-44.46,40.32-22.09,0-40-11.43-46.91-29.64A8.38,8.38,0,0,1,508.42,90.47Z"/><path class="cls-1" d="M79.35,20.28V37.72H96.46v-11a3.7,3.7,0,0,1,3.7-3.69h84.91V94.52a3.7,3.7,0,0,1-3.7,3.69h-7.72v17.12H187.8a14.39,14.39,0,0,0,14.39-14.39v-95H93.74A14.39,14.39,0,0,0,79.35,20.28Z"/><path class="cls-1" d="M39.79,63.05V80.5H56.91v-11a3.69,3.69,0,0,1,3.69-3.69h84.91v71.51a3.7,3.7,0,0,1-3.69,3.7h-7.73v17.12h14.15a14.39,14.39,0,0,0,14.39-14.39V48.66H54.18A14.39,14.39,0,0,0,39.79,63.05Z"/><path class="cls-1" d="M21,91.49a21,21,0,0,0-21,21V180a21,21,0,0,0,21,21h80.88a21,21,0,0,0,21-21V91.49Zm84.74,17.12V180a3.86,3.86,0,0,1-3.86,3.86H21A3.86,3.86,0,0,1,17.12,180V112.47A3.86,3.86,0,0,1,21,108.61Z"/><path class="cls-1" d="M86.35,117h9.81a0,0,0,0,1,0,0v9.81a1.1,1.1,0,0,1-1.1,1.1H86.35a1.1,1.1,0,0,1-1.1-1.1v-8.71A1.1,1.1,0,0,1,86.35,117Z"/><path class="cls-2" d="M267.3,167.16c-6.33,0-8.75,3.14-8.75,6.58,0,10,22.8,5.72,22.8,20.26,0,7.54-5.19,11.7-14.47,11.7-6.88,0-12-3.5-14-7.42a2.07,2.07,0,0,1-.31-1.09,1.94,1.94,0,0,1,3.62-1A12.08,12.08,0,0,0,266.88,202c6.63,0,10.37-2.66,10.37-8,0-11.28-22.8-6-22.8-20.26,0-5.55,4-10.32,12.85-10.32,5.73,0,10.37,2.42,12.9,6.21a2,2,0,0,1,.37,1.15,1.94,1.94,0,0,1-3.5,1.15A12,12,0,0,0,267.3,167.16Z"/><path class="cls-2" d="M289.67,184.59c0-14.29,7.12-21.17,18.82-21.17s18.81,6.88,18.81,21.17-7.11,21.11-18.81,21.11S289.67,198.76,289.67,184.59Zm4.22,0c0,11.76,5.37,17.37,14.6,17.37s14.59-5.61,14.59-17.37-5.37-17.43-14.59-17.43S293.89,172.77,293.89,184.59Z"/><path class="cls-2" d="M341.9,203.28a2,2,0,0,1-4.1,0v-37a2,2,0,0,1,2.05-2h19.36a1.87,1.87,0,1,1,0,3.74H341.9v15h13.27a1.87,1.87,0,1,1,0,3.74H341.9Z"/><path class="cls-2" d="M370.61,168.13a1.93,1.93,0,1,1,0-3.86h25.62a1.93,1.93,0,1,1,0,3.86H385.5v35.15a2,2,0,0,1-4.1,0V168.13Z"/><path class="cls-2" d="M427.35,173.07l-8.68,30.7a2,2,0,0,1-2,1.56,2.06,2.06,0,0,1-2-1.5L404,166.56a3,3,0,0,1-.12-.72,2,2,0,0,1,2.05-2.05,2.07,2.07,0,0,1,2,1.5l8.8,31.18,8.62-31.18a2.07,2.07,0,0,1,4,0L438,196.47l8.8-31.18a2.06,2.06,0,0,1,2-1.5,2,2,0,0,1,2.05,2.05,3,3,0,0,1-.12.72L440,203.83a2.06,2.06,0,0,1-2,1.5,2,2,0,0,1-2-1.56Z"/><path class="cls-2" d="M460.58,192.85l-4.4,11a2.09,2.09,0,0,1-2,1.44,2.07,2.07,0,0,1-2.05-2.05,2.41,2.41,0,0,1,.18-.9L467,165.17a2,2,0,0,1,1.92-1.38,2.15,2.15,0,0,1,2,1.38l14.71,37.21a3,3,0,0,1,.18.9,2.12,2.12,0,0,1-4.1.67l-4.34-11.1ZM469,170.66l-7.11,18.45h14.29Z"/><path class="cls-2" d="M499.42,203.28a2.05,2.05,0,1,1-4.1,0v-37a2,2,0,0,1,2.05-2h12a11.26,11.26,0,0,1,11.52,11.52c0,6.21-4.28,11.21-10.8,11.51l11,14.72a2,2,0,0,1,.42,1.26,2,2,0,0,1-2,2.05,2.05,2.05,0,0,1-1.75-1L505.51,187.3h-6.09Zm0-19.72h10.07c4.22,0,7.24-3.43,7.24-7.77s-3.08-7.78-7.42-7.78h-9.89Z"/><path class="cls-2" d="M533.31,204.85a2,2,0,0,1-2-2V166.32a2,2,0,0,1,2-2h19.36a1.87,1.87,0,1,1,0,3.74H535.36v14.53h13.27a1.87,1.87,0,1,1,0,3.74H535.36v14.83h18a1.87,1.87,0,1,1,0,3.74Z"/><path class="cls-2" d="M577.64,167.16c-6.33,0-8.75,3.14-8.75,6.58,0,10,22.8,5.72,22.8,20.26,0,7.54-5.19,11.7-14.47,11.7-6.88,0-12-3.5-14.05-7.42a2.07,2.07,0,0,1-.31-1.09,1.94,1.94,0,0,1,3.62-1A12.08,12.08,0,0,0,577.22,202c6.63,0,10.37-2.66,10.37-8,0-11.28-22.8-6-22.8-20.26,0-5.55,4-10.32,12.85-10.32,5.73,0,10.37,2.42,12.9,6.21a2,2,0,0,1,.37,1.15,1.94,1.94,0,0,1-3.5,1.15A12,12,0,0,0,577.64,167.16Z"/></svg>