<svg id="Layer_1" data-name="Layer 1" xmlns="http://www.w3.org/2000/svg" viewBox="0 0 159.87 54.33"><defs><style>.cls-1{fill:#003c59;}.cls-2{fill:#2095b8;}.cls-3{fill:#36b3d0;}.cls-4{fill:#007c98;}.cls-5{fill:#00a2c8;}.cls-6{fill:#043e5e;}</style></defs><polygon class="cls-1" points="53.34 35.87 41.34 35.87 41.34 11.96 18.24 11.97 18.24 0 53.34 0 53.34 35.87"/><polygon class="cls-2" points="44.18 45.14 32.18 45.14 32.19 21.29 9.17 21.29 9.17 19.42 9.17 9.27 44.18 9.27 44.18 45.14"/><polygon class="cls-3" points="35.03 54.33 0 54.33 0.02 30.48 0.02 28.61 0.02 18.46 35.03 18.46 35.03 54.33"/><path class="cls-1" d="M79.18,21.9V6.7H65.45V0h35.79L94.49,6.7h-8v8m0,1.71V33.05H79.18V23.64"/><path class="cls-1" d="M110.12,24.3A9.25,9.25,0,0,0,112.69,26a9.88,9.88,0,0,0,3.91.75,11.07,11.07,0,0,0,6.62-1.93V20.18h-9.81l6.06-6.08H130V28a23.23,23.23,0,0,1-5.87,3.58,19.28,19.28,0,0,1-7.78,1.49,18.29,18.29,0,0,1-6.83-1.23,16.22,16.22,0,0,1-4.38-2.6m-.91-.83a15.36,15.36,0,0,1-3.45-5.2,17.23,17.23,0,0,1-1.23-6.57v-.1a16.35,16.35,0,0,1,10-15.22A16.94,16.94,0,0,1,116.32,0a23.45,23.45,0,0,1,3.91.3,19.16,19.16,0,0,1,3.26.84,15.42,15.42,0,0,1,2.83,1.37,22.27,22.27,0,0,1,2.56,1.87l-5,4.83a7.58,7.58,0,0,0-1.22-.86,12.24,12.24,0,0,0-1.89-1,10.68,10.68,0,0,0-2.12-.64,13.1,13.1,0,0,0-2.52-.23,8.23,8.23,0,0,0-3.58.8,9.7,9.7,0,0,0-4.88,5.31,10.52,10.52,0,0,0-.71,3.87v.09a11.34,11.34,0,0,0,.71,4.05,9.68,9.68,0,0,0,1.57,2.73l.07.08"/><path class="cls-1" d="M143.47,18.74l-1.39-.48a12.71,12.71,0,0,1-3.34-1.8,7.46,7.46,0,0,1-2.13-2.68,9.28,9.28,0,0,1-.75-4V9.72a9.21,9.21,0,0,1,.82-4,8.82,8.82,0,0,1,2.29-3,10.13,10.13,0,0,1,3.52-2A14,14,0,0,1,147,.09a19.15,19.15,0,0,1,6.46,1,20.36,20.36,0,0,1,5.59,3.2l-4.51,4.44A14.61,14.61,0,0,0,151,7.14a10.74,10.74,0,0,0-4.1-.84,5,5,0,0,0-3.08.8,2.4,2.4,0,0,0-1,2v.09a3,3,0,0,0,.29,1.35,2.76,2.76,0,0,0,1.08,1,10.77,10.77,0,0,0,2.13.87c.75.22,1.66.48,2.74.77m1.46.4A31.43,31.43,0,0,1,154,14.81a12.14,12.14,0,0,1,3.21,1.92,7.46,7.46,0,0,1,2,2.62,9,9,0,0,1,.66,3.61v.09a9.94,9.94,0,0,1-.86,4.22,8.7,8.7,0,0,1-2.41,3.11,10.8,10.8,0,0,1-3.68,1.91,16,16,0,0,1-4.74.67A21.06,21.06,0,0,1,141,31.7a18.8,18.8,0,0,1-6.39-3.86l4.57-4.56a16.3,16.3,0,0,0,4.08,2.42,12,12,0,0,0,5,1.05,6.17,6.17,0,0,0,3.4-.8,2.5,2.5,0,0,0,1.21-2.21v-.1a2.71,2.71,0,0,0-.25-1.2,2.63,2.63,0,0,0-1-1,11,11,0,0,0-2-.91q-1.26-.45-3.27-1c-.55-.13-1.07-.27-1.58-.41"/><polygon class="cls-4" points="44.9 17.87 44.9 9.56 18.9 9.56 18.9 19.56 34.9 19.56 34.9 36.56 44.9 36.56 44.9 17.87 44.9 17.87"/><polygon class="cls-5" points="35.03 18.46 13.32 18.46 9.17 18.46 9.17 45.14 9.4 45.14 13.32 45.14 35.03 45.14 35.03 41 35.03 18.46"/><path class="cls-6" d="M66.31,44a2.85,2.85,0,0,1,.94-1,3.92,3.92,0,0,1,1.31-.53A6.53,6.53,0,0,1,70,42.38a5,5,0,0,1,2,.41A4.65,4.65,0,0,1,73.65,44l-1.06.94A3.26,3.26,0,0,0,71.37,44a3.86,3.86,0,0,0-1.53-.29,4,4,0,0,0-.83.09,2.58,2.58,0,0,0-.76.31,2,2,0,0,0-.56.52,1.2,1.2,0,0,0-.22.72A1.41,1.41,0,0,0,68,46.53a3.56,3.56,0,0,0,1.21.64c.49.15,1,.3,1.57.43a7.85,7.85,0,0,1,1.57.54,3.38,3.38,0,0,1,1.21,1A2.72,2.72,0,0,1,74,50.82a2.66,2.66,0,0,1-.41,1.49,3.34,3.34,0,0,1-1,1,4.64,4.64,0,0,1-1.41.57,6.5,6.5,0,0,1-1.48.18,4.64,4.64,0,0,1-2.44-.63,4.42,4.42,0,0,1-1.69-1.83L66.78,51A3.5,3.5,0,0,0,68,52.3a3.08,3.08,0,0,0,1.67.44,5.19,5.19,0,0,0,.92-.09,3.25,3.25,0,0,0,.93-.29,2,2,0,0,0,.72-.58,1.48,1.48,0,0,0,.29-1,1.32,1.32,0,0,0-.48-1.1,4.24,4.24,0,0,0-1.22-.63c-.49-.16-1-.31-1.58-.44a8,8,0,0,1-1.58-.57,3.5,3.5,0,0,1-1.22-1A2.66,2.66,0,0,1,66,45.43,2.64,2.64,0,0,1,66.31,44Z"/><path class="cls-6" d="M78.23,53.61a4.38,4.38,0,0,1-1.64-1.24,5.27,5.27,0,0,1-.94-1.86,8.52,8.52,0,0,1-.3-2.3v-.43a6,6,0,0,1,.37-2.15,5,5,0,0,1,1-1.72,4.89,4.89,0,0,1,1.66-1.13,5.81,5.81,0,0,1,2.22-.4,5.74,5.74,0,0,1,2.22.4,4.93,4.93,0,0,1,1.67,1.13,5.27,5.27,0,0,1,1,1.72A6.26,6.26,0,0,1,86,47.78v.43a8.52,8.52,0,0,1-.3,2.3,5.25,5.25,0,0,1-.93,1.86,4.38,4.38,0,0,1-1.64,1.24,6.62,6.62,0,0,1-4.85,0ZM79,44.05a3.58,3.58,0,0,0-1.18.88,4,4,0,0,0-.73,1.3,5.17,5.17,0,0,0-.25,1.58v.37a6.61,6.61,0,0,0,.22,1.75,4.31,4.31,0,0,0,.68,1.45,3.38,3.38,0,0,0,1.16,1,3.65,3.65,0,0,0,1.68.37,4,4,0,0,0,1.73-.35,3.41,3.41,0,0,0,1.19-1A4,4,0,0,0,84.21,50a7.42,7.42,0,0,0,.22-1.81v-.37a4.89,4.89,0,0,0-.26-1.58,3.85,3.85,0,0,0-.73-1.3,3.42,3.42,0,0,0-1.19-.88,3.87,3.87,0,0,0-1.6-.32A3.92,3.92,0,0,0,79,44.05Z"/><path class="cls-6" d="M87.58,42.57h7.66l-.43,1.34H89v3.3h5.37v1.35H89v5.31H87.58Z"/><path class="cls-6" d="M100.62,53.87H99.15v-10H95.38V42.57h9L104,43.91h-3.33Z"/><path class="cls-6" d="M115.71,51.56l2.43-9.18,1.43.39-2.94,11.1h-1.77l-2.26-7.25-.28-1.3-.27,1.3-2.26,7.25H108l-2.94-11.1,1.43-.39,2.44,9.18,2.38-7.67h2Z"/><path class="cls-6" d="M122,53.87h-1.56l4.21-11.3h1.82l4.43,11.3h-1.53l-1.32-3.41h-4.8Zm5.58-4.63-1.54-4-.46-1.64-.44,1.64-1.46,4Z"/><path class="cls-6" d="M135.46,49.16a1.56,1.56,0,0,0-.55-.1H133.6v4.81h-1.46V42.57h5.14a4,4,0,0,1,1.32.22,2.94,2.94,0,0,1,1,.64,2.8,2.8,0,0,1,.67,1,3.26,3.26,0,0,1,.25,1.31,3.34,3.34,0,0,1-.82,2.34,3.23,3.23,0,0,1-2.3,1L140,52.33a1.31,1.31,0,0,0,.52.45,2.27,2.27,0,0,0,.57.07v1a1.25,1.25,0,0,1-.41.15,2.28,2.28,0,0,1-.4,0,1.26,1.26,0,0,1-.85-.33,5.14,5.14,0,0,1-.7-.7l-2.86-3.56A1,1,0,0,0,135.46,49.16ZM137,47.74a2.21,2.21,0,0,0,1.56-.48,2,2,0,0,0,.5-1.52,1.82,1.82,0,0,0-.48-1.39,2,2,0,0,0-1.39-.44H133.6v3.83Z"/><path class="cls-6" d="M142.74,53.87V42.57h8.13l-.42,1.34H144.2v3.3h5.6v1.35h-5.6v4h6.62v1.33Z"/><path class="cls-6" d="M152.51,44a2.85,2.85,0,0,1,.94-1,3.92,3.92,0,0,1,1.31-.53,6.53,6.53,0,0,1,1.46-.16,5,5,0,0,1,2,.41,4.65,4.65,0,0,1,1.64,1.2l-1.06.94a3.26,3.26,0,0,0-1.22-.91,3.86,3.86,0,0,0-1.53-.29,4,4,0,0,0-.83.09,2.7,2.7,0,0,0-.76.31,2,2,0,0,0-.56.52,1.2,1.2,0,0,0-.22.72,1.41,1.41,0,0,0,.48,1.16,3.56,3.56,0,0,0,1.21.64c.49.15,1,.3,1.57.43a7.85,7.85,0,0,1,1.57.54,3.38,3.38,0,0,1,1.21,1,2.72,2.72,0,0,1,.48,1.71,2.66,2.66,0,0,1-.41,1.49,3.34,3.34,0,0,1-1,1,4.64,4.64,0,0,1-1.41.57,6.5,6.5,0,0,1-1.48.18,4.67,4.67,0,0,1-2.44-.63,4.42,4.42,0,0,1-1.69-1.83L153,51a3.5,3.5,0,0,0,1.21,1.35,3.08,3.08,0,0,0,1.67.44,5.19,5.19,0,0,0,.92-.09,3.25,3.25,0,0,0,.93-.29,2,2,0,0,0,.72-.58,1.48,1.48,0,0,0,.29-1,1.32,1.32,0,0,0-.48-1.1,4.24,4.24,0,0,0-1.22-.63c-.49-.16-1-.31-1.58-.44a8,8,0,0,1-1.58-.57,3.5,3.5,0,0,1-1.22-1,2.66,2.66,0,0,1-.48-1.68A2.64,2.64,0,0,1,152.51,44Z"/></svg>