<svg id="Camada_1" data-name="Camada 1" xmlns="http://www.w3.org/2000/svg" viewBox="0 0 594.18 205.7"><defs><style>.cls-1{fill:#fff;}</style></defs><path class="cls-1" d="M292.76,26.46H263.15a8.38,8.38,0,0,1-8.37-8.38V11.61a8.37,8.37,0,0,1,8.37-8.37H356.3V18.08a8.38,8.38,0,0,1-8.38,8.38h-29.6v93.86a8.38,8.38,0,0,1-8.38,8.38h-8.81a8.38,8.38,0,0,1-8.37-8.38Z"/><path class="cls-1" d="M485,61.39V123.6a5.1,5.1,0,0,1-5.1,5.1H467.3a5.09,5.09,0,0,1-5.09-5.09l0-7.51c-7.74,10.62-20.7,15.66-36.54,15.66-36.72,0-62.1-26.82-62.1-65.34C363.55,28.26,388.39,0,425.65,0c25.38,0,47,13,56.52,37.44,0,0-13.43.58-27.74.69-6.47-9.31-16.8-14-29.14-14-22.32,0-36.36,14.94-36.36,41.76,0,27.9,15.3,41.58,38.52,41.58,19.44,0,30.06-9.54,30.06-22.86V82.8H436.23A6.26,6.26,0,0,1,430,76.54V67.65a6.26,6.26,0,0,1,6.26-6.26Z"/><path class="cls-1" d="M508.42,90.47l8.76-2.19A8.33,8.33,0,0,1,527,93.69c3.5,9.89,11.87,15,22.87,15s18.72-5.4,18.72-15.48c0-7.2-6.12-12.06-23.58-19.08-26.46-10.62-36-20.34-36-39.06,0-20.52,16-34.92,40-34.92,16.81,0,30.21,7.49,38.22,22.31a1.55,1.55,0,0,1-.55,2l-12,7.5a9.12,9.12,0,0,1-11.92-2.09,18.29,18.29,0,0,0-14.44-7.25c-7.74,0-13.86,5-13.86,11.88,0,7.2,5.4,11.7,23.94,18.9C585.18,63.9,594,73.08,594,90.9c0,24.12-18.9,40.32-44.46,40.32-22.09,0-40-11.43-46.91-29.64A8.38,8.38,0,0,1,508.42,90.47Z"/><path class="cls-1" d="M79.35,20.28V37.72H96.46v-11a3.7,3.7,0,0,1,3.7-3.69h84.91V94.52a3.7,3.7,0,0,1-3.7,3.69h-7.72v17.12H187.8a14.39,14.39,0,0,0,14.39-14.39v-95H93.74A14.39,14.39,0,0,0,79.35,20.28Z"/><path class="cls-1" d="M39.79,63.05V80.5H56.91v-11a3.69,3.69,0,0,1,3.69-3.69h84.91v71.51a3.7,3.7,0,0,1-3.69,3.7h-7.73v17.12h14.15a14.39,14.39,0,0,0,14.39-14.39V48.66H54.18A14.39,14.39,0,0,0,39.79,63.05Z"/><path class="cls-1" d="M21,91.49a21,21,0,0,0-21,21V180a21,21,0,0,0,21,21h80.88a21,21,0,0,0,21-21V91.49Zm84.74,17.12V180a3.86,3.86,0,0,1-3.86,3.86H21A3.86,3.86,0,0,1,17.12,180V112.47A3.86,3.86,0,0,1,21,108.61Z"/><path class="cls-1" d="M86.35,117h9.81a0,0,0,0,1,0,0v9.81a1.1,1.1,0,0,1-1.1,1.1H86.35a1.1,1.1,0,0,1-1.1-1.1v-8.71A1.1,1.1,0,0,1,86.35,117Z"/><path class="cls-1" d="M269.41,179c-4.28-1.3-8-2.42-8-6.33,0-2.82.77-6.06,6.8-6.06a16.43,16.43,0,0,1,7.24,1.84,3.65,3.65,0,0,0,1.78.55,2.84,2.84,0,0,0,2.89-2.77,3.12,3.12,0,0,0-1.5-2.49,18.82,18.82,0,0,0-10.41-3c-8.31,0-12.89,4.25-12.89,12,0,8.31,6,10,11.22,11.52,5,1.43,9.33,2.66,9.33,8.6,0,4.56-2.68,6.86-8,6.86a17.47,17.47,0,0,1-8.59-2.2,2.9,2.9,0,0,0-1.59-.49,3,3,0,0,0-2.95,3,3,3,0,0,0,1.52,2.63h0a22.29,22.29,0,0,0,11.61,3.08c8.94,0,14.06-4.83,14.06-13.26C282,182.84,275,180.72,269.41,179Z"/><path class="cls-1" d="M306.33,160.78c-9.36,0-14.73,5.57-14.73,15.29v14.35c0,9.71,5.37,15.28,14.73,15.28s14.73-5.57,14.73-15.28V176.07C321.06,166.35,315.69,160.78,306.33,160.78Zm-8.52,15.9c0-6.87,2.63-9.93,8.52-9.93s8.52,3.06,8.52,9.93v13.13c0,6.86-2.63,9.92-8.52,9.92s-8.52-3.06-8.52-9.92Z"/><path class="cls-1" d="M353.74,161.27H336.32a3.11,3.11,0,0,0-3.07,3.14v37.73a3.08,3.08,0,0,0,3.07,3.07,3.11,3.11,0,0,0,3.14-3.07V186.32h12.93a2.9,2.9,0,1,0,0-5.79H339.46V167.06h14.28a2.9,2.9,0,0,0,0-5.79Z"/><path class="cls-1" d="M391.1,161.27H366.8a2.86,2.86,0,0,0-2.89,2.9,2.83,2.83,0,0,0,2.89,2.89h9.07v35.38A3.14,3.14,0,0,0,379,205.7a3.11,3.11,0,0,0,3.14-3.07V167.06h9a2.82,2.82,0,0,0,2.89-2.89A2.74,2.74,0,0,0,391.1,161.27Z"/><path class="cls-1" d="M445.56,160.78a3.16,3.16,0,0,0-3.12,2.6l-7.23,32.88-6.64-32.18a3.2,3.2,0,0,0-3.13-2.81h-.86a3.2,3.2,0,0,0-3.12,2.8l-6.64,32.19-7.23-32.88a3.15,3.15,0,0,0-6.26.6,4.6,4.6,0,0,0,.19,1.22l9,37.54h0a3.19,3.19,0,0,0,3.12,2.46h2.15a3.15,3.15,0,0,0,3.19-2.48L425,174.62l6.08,28.1a3.15,3.15,0,0,0,3.19,2.49h2.14a3.2,3.2,0,0,0,3.13-2.47l8.95-37.53a4.43,4.43,0,0,0,.2-1.23A3.14,3.14,0,0,0,445.56,160.78Z"/><path class="cls-1" d="M472.78,163.65a3,3,0,0,0-3-2.38h-1.11a3,3,0,0,0-3,2.37l-12.33,37.6a4.64,4.64,0,0,0-.27,1.39,3,3,0,0,0,3.08,3.07,3.17,3.17,0,0,0,3.05-2.31l2.78-8.85h14.47l2.78,8.86a3.19,3.19,0,0,0,3,2.3,3.07,3.07,0,0,0,3.14-3.07,3.87,3.87,0,0,0-.27-1.26Zm2.09,25H463.6l5.64-18Z"/><path class="cls-1" d="M515.4,187.39c3.7-1.35,7.82-4.64,7.82-12.55,0-9.13-4.88-13.57-14.91-13.57H499a3.11,3.11,0,0,0-3.07,3.14v38.22a3.11,3.11,0,0,0,6.21.12V188.4h7.1l7.72,15.31a3.22,3.22,0,0,0,3,2,3.11,3.11,0,0,0,3.14-3.13,3.75,3.75,0,0,0-.49-1.77Zm1.48-12.55c0,5.45-2.47,7.78-8.27,7.78h-6.49V167.06h5.82C514.46,167.06,516.88,169.17,516.88,174.84Z"/><path class="cls-1" d="M555.72,199.43H541.43V185.71h12.94a2.9,2.9,0,0,0,0-5.79H541.43V167.06h14.29a2.9,2.9,0,0,0,0-5.79H538.48a3.13,3.13,0,0,0-3.26,3.14v37.73a3.08,3.08,0,0,0,3.08,3.07h17.42a2.89,2.89,0,0,0,0-5.78Z"/><path class="cls-1" d="M581.6,179c-4.27-1.3-8-2.42-8-6.33,0-2.82.77-6.06,6.79-6.06a16.44,16.44,0,0,1,7.25,1.84,3.62,3.62,0,0,0,1.77.55,2.83,2.83,0,0,0,2.89-2.77,3.1,3.1,0,0,0-1.5-2.49,18.79,18.79,0,0,0-10.41-3c-8.31,0-12.89,4.25-12.89,12,0,8.31,6,10,11.22,11.52,5,1.43,9.33,2.66,9.33,8.6,0,4.56-2.68,6.86-8,6.86a17.44,17.44,0,0,1-8.59-2.2A2.9,2.9,0,0,0,570,197a3,3,0,0,0-3,3,3,3,0,0,0,1.53,2.63,22.27,22.27,0,0,0,11.61,3.08c8.93,0,14-4.83,14-13.26C594.18,182.84,587.21,180.72,581.6,179Z"/></svg>