<svg id="Camada_1" data-name="Camada 1" xmlns="http://www.w3.org/2000/svg" viewBox="0 0 238.6 80.04"><defs><style>.cls-1{fill:#212f56;}.cls-2{fill:#0fb1d1;}.cls-3,.cls-4{fill:#1f2f55;}.cls-4{stroke:#212f56;stroke-miterlimit:10;stroke-width:0.24px;}</style></defs><polygon class="cls-1" points="34.19 3.14 34.19 15.25 40.71 15.25 40.71 9.65 74.41 9.65 74.41 38.26 70.07 38.26 70.07 44.78 80.93 44.78 80.93 3.14 34.19 3.14"/><polygon class="cls-2" points="19.14 19.41 19.14 31.53 25.66 31.53 25.66 25.93 59.37 25.93 59.37 54.54 55.02 54.54 55.02 61.05 65.88 61.05 65.88 19.41 19.14 19.41"/><path class="cls-1" d="M12,35.71a8,8,0,0,0-8,8V69.37a8,8,0,0,0,8,8H42.76a8,8,0,0,0,8-8V35.71Zm32.24,6.51V69.37a1.46,1.46,0,0,1-1.47,1.46H12a1.46,1.46,0,0,1-1.47-1.46V43.69A1.47,1.47,0,0,1,12,42.22Z"/><path class="cls-3" d="M37.46,45.41h3.13a0,0,0,0,1,0,0v3.13a1,1,0,0,1-1,1h-2.1a1,1,0,0,1-1-1v-2.1A1,1,0,0,1,37.46,45.41Z"/><path class="cls-4" d="M111.36,65.28a5.39,5.39,0,0,0-1.7-.82,6.81,6.81,0,0,0-1.9-.29c-1.73,0-2.78.63-2.78,1.67a1.33,1.33,0,0,0,.17.71c.4.6.85.86,3.49,2.13S112,70.87,112,72.54c0,2.41-1.88,3.86-4.94,3.86A8.24,8.24,0,0,1,104.3,76a11,11,0,0,1-1.93-1l1-1.84a7.61,7.61,0,0,0,1.75,1.07,5.87,5.87,0,0,0,2.25.46c1.58,0,2.52-.68,2.52-1.82,0-.9-.45-1.5-1.53-2l-2.47-1.19c-2.07-1-3-2.13-3-3.58,0-2.24,1.93-3.68,4.94-3.68a8.87,8.87,0,0,1,2.52.34,7.68,7.68,0,0,1,1.82.79Z"/><path class="cls-4" d="M122.8,76.4c-4.37,0-7.52-3-7.52-7s3.15-7,7.52-7,7.51,3,7.51,7S127.14,76.4,122.8,76.4Zm0-12.26A5.24,5.24,0,1,0,128,69.36,5.13,5.13,0,0,0,122.8,64.14Z"/><path class="cls-4" d="M137.15,64.37v4.11h5.17v1.79h-5.17v5.87H135V62.58h8.39v1.79Z"/><path class="cls-4" d="M152,64.37V76.14h-2.12V64.37H145V62.58h11.78v1.79Z"/><path class="cls-4" d="M171.23,76.4h-1.14l-2.78-6.13-2.64,6.13h-1l-6-13.82H160l4.29,10.53,2.12-5-2.32-5.53h2l1.42,3.21,1.25-3.21h2l-2.33,5.36,2.33,5.17,4.11-10.53h2.13Z"/><path class="cls-4" d="M189.13,76.14l-1.56-3.77h-5.82l-1.53,3.77h-2.15l5.53-13.9h2.13l5.53,13.9Zm-4.45-11.6-2.33,6.07H187Z"/><path class="cls-4" d="M202.72,76.14l-3.58-5.53h-1.95v5.53H195V62.58h4.57c3.26,0,5.05,1.36,5.05,3.86a3.83,3.83,0,0,1-3.18,4l3.75,5.7Zm-1.22-11.4c-.45-.34-.62-.37-2.18-.37h-2.13v4.45h2.13c1.39,0,1.67,0,2.26-.56a2.16,2.16,0,0,0,.74-1.73A2.08,2.08,0,0,0,201.5,64.74Z"/><path class="cls-4" d="M209.3,76.14V62.58h8.4v1.79h-6.24v3.91h5.16v1.79h-5.16v4.28h6.41v1.79Z"/><path class="cls-4" d="M229.9,65.28a5.39,5.39,0,0,0-1.7-.82,6.87,6.87,0,0,0-1.9-.29c-1.73,0-2.78.63-2.78,1.67a1.25,1.25,0,0,0,.17.71c.39.6.85.86,3.49,2.13s3.37,2.19,3.37,3.86c0,2.41-1.87,3.86-4.93,3.86a8.2,8.2,0,0,1-2.78-.43,10.64,10.64,0,0,1-1.93-1l1-1.84a7.63,7.63,0,0,0,1.76,1.07,5.86,5.86,0,0,0,2.24.46c1.59,0,2.53-.68,2.53-1.82,0-.9-.46-1.5-1.54-2l-2.46-1.19c-2.07-1-3-2.13-3-3.58,0-2.24,1.93-3.68,4.94-3.68a9,9,0,0,1,2.52.34,8,8,0,0,1,1.82.79Z"/><path class="cls-3" d="M117,14.13h-14.4V5.32H141.1v8.81H126.69V52.91H117Z"/><path class="cls-3" d="M189.12,26.83V52.91h-7.84V48.13c-2.94,4-7.86,5.94-13.86,5.94-13.93,0-23.56-10.17-23.56-24.78s9.42-25.2,23.56-25.2c9.62,0,17.82,4.92,21.44,14.2,0,0-5.1.22-10.53.26-2.45-3.53-6.37-5.31-11-5.31-8.47,0-13.79,5.67-13.79,15.84,0,10.58,5.8,15.77,14.61,15.77,7.37,0,11.4-3.62,11.4-8.67V35.5H169V26.83Z"/><path class="cls-3" d="M195.7,39.19l9.56-2.39c.54,5.6,4.16,8.53,9.28,8.53,4.17,0,7.1-2,7.1-5.87,0-2.73-2.32-4.58-8.94-7.24-10-4-13.66-7.71-13.66-14.82,0-7.78,6.08-13.24,15.16-13.24,6.56,0,11.74,3,14.75,8.94l-8,5c-1.5-3.55-4.1-5.4-7-5.4s-5.26,1.91-5.26,4.51,2.05,4.44,9.08,7.17c10.18,4,13.52,7.44,13.52,14.2,0,9.15-7.17,15.3-16.86,15.3S197.13,48.06,195.7,39.19Z"/></svg>