<svg id="Layer_1" data-name="Layer 1" xmlns="http://www.w3.org/2000/svg" viewBox="0 0 516 122"><defs><style>.cls-1{fill:#0f2748;}.cls-2{font-size:29.87px;fill:#7c7c7c;font-family:Gotham-Medium, Gotham;font-weight:500;letter-spacing:0.05em;}.cls-3{letter-spacing:0.04em;}.cls-4{letter-spacing:0.04em;}.cls-5{letter-spacing:0.05em;}.cls-6{letter-spacing:0.03em;}</style></defs><path class="cls-1" d="M203.83,16.82h16.82l13.7,22.23,13.7-22.23h16.82V74.25H249v-33L234.39,63.75h-.33L219.5,41.43V74.25H203.83Z"/><path class="cls-1" d="M294.89,16.41h15.34l24.45,57.84H317.62L313.43,64H291.28l-4.1,10.26H270.44Zm13.95,35.28-6.4-16.33L296,51.69Z"/><path class="cls-1" d="M354.29,30.77H337.06V16.82h50.37v14H370.2V74.25H354.29Z"/><path class="cls-1" d="M423.28,75.4A31.85,31.85,0,0,1,411,73.06a30.35,30.35,0,0,1-9.77-6.36,29.44,29.44,0,0,1-6.44-9.43,28.9,28.9,0,0,1-2.34-11.57v-.17a29.31,29.31,0,0,1,8.86-21.12,31,31,0,0,1,9.85-6.4,33.52,33.52,0,0,1,24.61,0,30.31,30.31,0,0,1,9.76,6.36A29.28,29.28,0,0,1,452,33.8a28.86,28.86,0,0,1,2.34,11.57v.16a29.31,29.31,0,0,1-8.86,21.13,30.93,30.93,0,0,1-9.84,6.4A31.94,31.94,0,0,1,423.28,75.4ZM423.4,61a14.39,14.39,0,0,0,6-1.23A13.87,13.87,0,0,0,434,56.49a15.5,15.5,0,0,0,3-4.89,16.34,16.34,0,0,0,1.07-5.9v-.17a16.38,16.38,0,0,0-1.07-5.9,15.18,15.18,0,0,0-3.05-4.93,14.91,14.91,0,0,0-4.68-3.4,15,15,0,0,0-12,0,14.28,14.28,0,0,0-7.57,8.2,16.85,16.85,0,0,0-1,5.91v.16a16.22,16.22,0,0,0,1.07,5.91,15.42,15.42,0,0,0,3,4.92,14.59,14.59,0,0,0,4.65,3.41A13.94,13.94,0,0,0,423.4,61Z"/><path class="cls-1" d="M485.14,75.23a44.78,44.78,0,0,1-14.65-2.39,35.54,35.54,0,0,1-12.26-7.18l8.86-10.61a29.24,29.24,0,0,0,18.62,6.89,9.49,9.49,0,0,0,4.88-1A3.23,3.23,0,0,0,492.28,58v-.16a3.12,3.12,0,0,0-.41-1.6,4.3,4.3,0,0,0-1.52-1.35,15.54,15.54,0,0,0-3-1.27q-1.84-.62-4.8-1.27Q478,51.3,474.06,50a26.23,26.23,0,0,1-6.85-3.28,14.82,14.82,0,0,1-4.59-5,14.93,14.93,0,0,1-1.68-7.41v-.16a17.7,17.7,0,0,1,1.51-7.37A16.36,16.36,0,0,1,466.88,21a20.78,20.78,0,0,1,7-3.81,29.53,29.53,0,0,1,9.27-1.36,41.17,41.17,0,0,1,13.17,2,33.24,33.24,0,0,1,10.46,5.73l-8,11.28a32.47,32.47,0,0,0-8.08-4.23,24.3,24.3,0,0,0-8-1.43,7.21,7.21,0,0,0-4.31,1.06A3.15,3.15,0,0,0,477,32.81V33a3.21,3.21,0,0,0,.45,1.71A4,4,0,0,0,479,36.05a17.11,17.11,0,0,0,3,1.22c1.29.41,2.91.84,4.88,1.27a70.9,70.9,0,0,1,8.9,2.5,26.83,26.83,0,0,1,6.77,3.48,14,14,0,0,1,4.27,5,15.13,15.13,0,0,1,1.48,6.92v.16a17.67,17.67,0,0,1-1.69,7.86A16.92,16.92,0,0,1,502,70.28,21.3,21.3,0,0,1,494.65,74,33.11,33.11,0,0,1,485.14,75.23Z"/><path class="cls-1" d="M10.09,15.67h47V29.46h-31v8.86H54.13V51.11H26.05v9.28H57.48V74.18H10.09Z"/><path class="cls-1" d="M65.83,15.67H93.5A34.39,34.39,0,0,1,105,17.34a19.7,19.7,0,0,1,7.6,4.68q5.19,5,5.19,13.63v.16A18.4,18.4,0,0,1,114.48,47a20.61,20.61,0,0,1-8.78,6.77l14,20.4H100.94L89.15,56.46h-7.1V74.18H65.83ZM92.75,43.75a9.75,9.75,0,0,0,6.43-1.88,6.21,6.21,0,0,0,2.26-5v-.17a6,6,0,0,0-2.34-5.22,10.66,10.66,0,0,0-6.44-1.72H82.05v14Z"/><path class="cls-1" d="M125.93,15.67H151a34.21,34.21,0,0,1,10,1.38,22,22,0,0,1,7.69,4,17.61,17.61,0,0,1,4.89,6.48,21.16,21.16,0,0,1,1.71,8.69v.17a20.94,20.94,0,0,1-1.88,9.11,18.65,18.65,0,0,1-5.22,6.6,22.54,22.54,0,0,1-8,4,36,36,0,0,1-10.08,1.34h-8V74.18H125.93Zm23.9,29.09a10.31,10.31,0,0,0,6.81-2.06,6.92,6.92,0,0,0,2.47-5.59v-.17a6.93,6.93,0,0,0-2.47-5.75,10.73,10.73,0,0,0-6.89-2h-7.61V44.76Z"/><text class="cls-2" transform="translate(8.5 111.92)">si<tspan class="cls-3" x="26.47" y="0">s</tspan><tspan class="cls-4" x="42.6" y="0">t</tspan><tspan x="55.89" y="0">ema de ge</tspan><tspan class="cls-3" x="227.32" y="0">s</tspan><tspan class="cls-5" x="243.45" y="0">tão emp</tspan><tspan class="cls-6" x="378.7" y="0">r</tspan><tspan x="391.99" y="0">esarial</tspan></text></svg>